<svg xmlns="http://www.w3.org/2000/svg" width="787" height="623" viewBox="0 0 787 623" fill="none"><path d="M130.539 515.778H122.435V592.573H130.539V620.56H69.2749V592.573H77.0544V564.415H54.3642V592.573H62.1437V620.56H0.880005V592.573H8.98366V515.778H0.880005V487.79H62.1437V515.778H54.3642V541.717H77.0544V515.778H69.2749V487.79H130.539V515.778Z" fill="#DA2327"></path><path d="M197.611 622.949C180.648 622.949 167.52 619.024 158.228 611.174C149.044 603.324 144.451 590.582 144.451 572.947V515.778H136.348V487.79H196.315V515.778H189.832V581.651C189.832 585.405 190.588 588.193 192.101 590.013C193.722 591.719 196.099 592.573 199.232 592.573C202.366 592.573 204.689 591.719 206.201 590.013C207.822 588.193 208.632 585.405 208.632 581.651V515.778H202.15V487.79H257.741V515.778H249.637V572.947C249.637 590.582 245.153 603.324 236.185 611.174C227.217 619.024 214.359 622.949 197.611 622.949Z" fill="#DA2327"></path><path d="M356.97 487.79H410.13V515.778H402.026V620.56H356.484L308.996 543.595V592.573H316.776V620.56H263.616V592.573H271.719V515.778H263.616V487.79H322.124L364.749 556.223V515.778H356.97V487.79Z" fill="#DA2327"></path><path d="M538.554 577.896H530.45V612.028C525.696 614.872 518.727 617.432 509.543 619.707C500.467 621.869 490.634 622.949 480.045 622.949C459.84 622.949 444.011 617.375 432.558 606.225C421.105 594.962 415.378 577.612 415.378 554.175C415.378 530.17 421.051 512.706 432.396 501.784C443.849 490.862 460.164 485.401 481.342 485.401C491.607 485.401 501.223 486.539 510.191 488.814C519.159 491.09 525.912 493.649 530.45 496.494V537.28H489.932V529.26C489.932 524.481 488.959 521.068 487.015 519.02C485.178 516.859 482.206 515.778 478.101 515.778C473.995 515.778 470.969 516.859 469.024 519.02C467.188 521.068 466.269 524.481 466.269 529.26V579.091C466.269 583.869 467.188 587.339 469.024 589.501C470.969 591.549 473.995 592.573 478.101 592.573C482.206 592.573 485.178 591.549 487.015 589.501C488.959 587.339 489.932 583.869 489.932 579.091V577.896H481.18V552.469H538.554V577.896Z" fill="#DA2327"></path><path d="M543.129 592.573H551.232V515.778H543.129V487.79H617.52C631.458 487.79 642.101 490.805 649.449 496.835C656.796 502.865 660.47 512.649 660.47 526.188C660.47 533.81 659.011 540.409 656.094 545.984C653.176 551.558 649.016 555.427 643.614 557.588L643.776 559.295C654.149 561.001 659.335 567.714 659.335 579.432V592.573H666.952V620.56H615.575V580.456C615.575 576.019 614.927 572.663 613.63 570.388C612.442 568.112 610.497 566.576 607.796 565.78C605.203 564.983 601.475 564.585 596.613 564.585V592.573H607.31V620.56H543.129V592.573ZM605.365 543.765C608.498 543.765 610.821 542.912 612.334 541.205C613.955 539.385 614.765 536.598 614.765 532.843V526.7C614.765 522.945 613.955 520.215 612.334 518.508C610.821 516.688 608.498 515.778 605.365 515.778H596.613V543.765H605.365Z" fill="#DA2327"></path><path d="M737.092 487.79H786.849V515.778H780.366L749.086 574.825V592.573H757.189V620.56H695.601V592.573H703.705V574.825L671.453 515.778H664.97V487.79H727.692V515.778H722.019L731.582 542.229H733.202L742.765 515.778H737.092V487.79Z" fill="#DA2327"></path><path d="M178.043 132.416C178.043 86.1228 188.941 84.8126 193.506 77.3881V2.70689L0.880005 2.7069L0.880011 76.0779C9.71608 81.3187 14.8705 103.883 16.3431 114.51L16.3432 298.375C16.3432 344.668 5.44534 345.978 0.880036 353.403L0.880043 428.084H193.506V354.713C184.67 349.472 179.516 326.908 178.043 316.281V132.416Z" fill="#DA2327"></path><path d="M255.359 0.959961V163.861C266.031 166.307 271.96 151.196 273.59 143.335L281.594 52.0576C290.043 10.5681 270.478 1.83343 255.359 0.959961Z" fill="#DA2327"></path><path d="M255.359 1.39669V163.598C244.687 166.033 238.758 150.987 237.128 143.159L229.124 52.2747C220.675 10.9635 240.24 2.2664 255.359 1.39669Z" fill="#DA2327"></path><path d="M770.465 132.419C769.394 206.637 768.43 317.545 770.914 327.971C770.994 328.309 771.073 328.64 771.15 328.963L771.19 329.133C773.78 340.05 774.464 342.935 786.849 355.951V426.774H639.894V355.951C652.287 344.759 656.271 332.635 656.714 327.971V204.249L569.481 426.774H510.28L447.102 204.914V328.509C447.543 333.168 451.52 345.28 463.89 356.46V426.774H317.211V356.46C321.335 352.093 330.289 340.388 333.116 328.509C335.944 316.63 334.294 174.197 333.116 104.465C333.264 99.6615 330.642 87.0836 318.979 75.2044V1.83343H510.28L551.809 169.539V168.838L569.481 0.959961H693.512C690.657 1.62176 687.46 3.09624 684.899 6.10702C681.411 10.2086 679.451 16.7538 680.597 26.8355C680.703 27.7674 680.292 28.7367 679.492 29.3591C674.281 33.4181 667.876 40.5102 665.446 48.3588C664.215 52.3332 663.975 56.6065 665.556 60.7646C667.139 64.9302 670.452 68.7208 675.844 71.9C676.78 72.452 677.234 73.3695 677.146 74.1933L677.093 74.6899C676.399 81.1751 675.435 90.191 678.212 97.6266C679.651 101.478 682.107 104.963 686.104 107.464C690.073 109.949 695.382 111.35 702.346 111.381C703.433 111.386 704.348 112.019 704.686 112.892C706.996 118.862 709.282 124.142 713.698 127.469C718.22 130.876 724.512 131.936 734.03 130.826C734.733 130.744 735.471 130.962 736.064 131.453C739.764 134.511 745.343 137.976 751.76 138.854C757.785 139.678 764.339 138.185 770.465 132.419Z" fill="#DA2327"></path></svg>