<svg id="Layer_2" data-name="Layer 2" xmlns="http://www.w3.org/2000/svg" viewBox="0 0 39.91 38.84"><defs><style>.cls-1{fill:#333367;stroke-width:0}</style></defs><g id="Layer_1-2" data-name="Layer 1"><path class="cls-1" d="M31.36 38.84c-2.92 0-5.69-1.52-7.24-4.01a8.515 8.515 0 0 1-1.34-4.39c-.05-2.64 1.06-5.09 3.07-6.75a8.66 8.66 0 0 1 5.31-2c2.35-.02 4.46.79 6.12 2.38a8.47 8.47 0 0 1 2.64 6.01c.04 1.57-.36 3.1-1.16 4.46-.43.76-.99 1.46-1.66 2.06-1.48 1.39-3.47 2.2-5.58 2.24h-.16Zm0-14.44h-.13c-1.34.04-2.6.51-3.65 1.37a5.798 5.798 0 0 0-2.09 4.62c.02 1.06.34 2.11.9 3 1.1 1.77 3.01 2.85 5.07 2.74 1.43-.04 2.78-.58 3.81-1.53.47-.42.85-.88 1.14-1.39a5.85 5.85 0 0 0-1.02-7.17 5.712 5.712 0 0 0-4.04-1.64Z"/><path class="cls-1" d="M30.36 33.43c-.34 0-.67-.13-.94-.38l-1.82-1.73c-.54-.52-.56-1.37-.04-1.91.52-.54 1.37-.56 1.91-.04l.88.85 2.83-2.74c.54-.52 1.39-.51 1.91.04.52.54.51 1.39-.04 1.91l-3.77 3.65c-.27.23-.61.36-.94.36ZM18.72 21.78c-.23 0-.47-.05-.69-.18L2.09 12.38c-.65-.38-.87-1.21-.49-1.86.38-.65 1.21-.87 1.84-.49l15.25 8.83 15.16-8.77c.65-.38 1.48-.14 1.84.49.38.65.14 1.48-.49 1.86l-15.83 9.17c-.2.11-.43.18-.67.18Z"/><path class="cls-1" d="M18.72 38.14c-.74 0-1.35-.61-1.35-1.35V20.42c0-.74.61-1.35 1.35-1.35s1.35.61 1.35 1.35v16.37c0 .74-.61 1.35-1.35 1.35Z"/><path class="cls-1" d="M18.72 38.84c-1.59 0-3.18-.34-4.4-1.05l-9.64-5.34C2.06 31.01 0 27.52 0 24.53V14.31c0-3 2.06-6.46 4.68-7.92l9.63-5.35c2.45-1.39 6.32-1.39 8.79 0l9.64 5.34c2.62 1.44 4.68 4.93 4.68 7.92v10.22c0 .18 0 .32-.04.51-.09.47-.43.87-.88 1.01-.45.16-.96.05-1.34-.25-2.08-1.81-5.29-1.88-7.47-.13a5.817 5.817 0 0 0-2.2 4.57c0 1.07.29 2.11.85 3.01.14.25.29.45.45.65.27.31.38.72.31 1.12-.07.4-.32.74-.69.94l-3.3 1.82c-1.23.72-2.8 1.07-4.39 1.07Zm0-36.1c-1.12 0-2.26.23-3.07.69L6.01 8.77c-1.75.96-3.27 3.56-3.27 5.54v10.22c0 1.99 1.53 4.59 3.27 5.54l9.64 5.34c1.64.92 4.51.92 6.16 0l2.02-1.12a8.415 8.415 0 0 1-1.03-4.06 8.51 8.51 0 0 1 3.21-6.7c2.45-1.97 5.96-2.38 8.72-1.21v-8.05c0-1.99-1.53-4.59-3.27-5.54l-9.64-5.34c-.85-.42-1.99-.65-3.1-.65Z"/></g></svg>