<svg width="41" height="40" fill="none" xmlns="http://www.w3.org/2000/svg"><path d="M25.5 37.917a1.242 1.242 0 0 1-1.067-1.883l1.75-2.917c.35-.6 1.117-.784 1.717-.434.6.35.784 1.117.434 1.717l-.45.75c4.6-1.083 8.05-5.217 8.05-10.15 0-.683.566-1.25 1.25-1.25.683 0 1.25.567 1.25 1.25-.017 7.117-5.817 12.917-12.934 12.917ZM3.833 16.25A1.26 1.26 0 0 1 2.583 15c0-7.117 5.8-12.917 12.917-12.917.45 0 .867.25 1.084.634.216.383.216.866-.017 1.25l-1.75 2.916c-.35.6-1.117.784-1.717.434a1.248 1.248 0 0 1-.433-1.717l.45-.75c-4.6 1.083-8.05 5.217-8.05 10.15.017.683-.55 1.25-1.234 1.25ZM29.966 12.5c-.216 0-.433-.05-.633-.167L22.717 8.5c-.6-.35-.8-1.117-.45-1.717.35-.6 1.116-.8 1.7-.45l6 3.467 5.95-3.45c.6-.35 1.366-.134 1.7.45.35.6.133 1.366-.45 1.716l-6.584 3.8a1.16 1.16 0 0 1-.616.184Z" fill="#333367"/><path d="M29.967 19.283a1.26 1.26 0 0 1-1.25-1.25v-6.8c0-.683.567-1.25 1.25-1.25s1.25.567 1.25 1.25v6.8c0 .7-.567 1.25-1.25 1.25Z" fill="#333367"/><path d="M29.967 19.583c-.767 0-1.55-.166-2.167-.516l-4-2.217c-1.3-.717-2.283-2.4-2.283-3.883V8.733c0-1.5.983-3.166 2.3-3.9l4-2.216c1.233-.684 3.083-.684 4.333 0l4 2.216c1.3.717 2.283 2.4 2.283 3.884v4.233c0 1.5-.983 3.167-2.283 3.883l-4 2.217c-.65.367-1.417.533-2.183.533Zm-.95-14.8-4 2.217c-.5.283-1 1.133-1 1.7v4.233c0 .584.5 1.434 1 1.7l4 2.234c.483.266 1.416.266 1.9 0l4-2.217c.5-.283 1-1.133 1-1.7V8.717c0-.584-.5-1.434-1-1.7l-4-2.217c-.484-.283-1.434-.283-1.9-.017ZM11.033 30.833c-.216 0-.433-.05-.633-.166l-6.617-3.834c-.6-.35-.8-1.116-.45-1.716.35-.6 1.117-.8 1.7-.45l6 3.466 5.95-3.45c.6-.35 1.367-.133 1.7.45.35.6.134 1.367-.45 1.717l-6.583 3.8a1.16 1.16 0 0 1-.617.183Z" fill="#333367"/><path d="M11.033 37.616a1.26 1.26 0 0 1-1.25-1.25v-6.8c0-.683.567-1.25 1.25-1.25.684 0 1.25.567 1.25 1.25v6.8c0 .7-.55 1.25-1.25 1.25Z" fill="#333367"/><path d="M11.034 37.917c-.767 0-1.55-.167-2.167-.517l-4-2.217c-1.3-.716-2.284-2.4-2.284-3.883v-4.233c0-1.5.984-3.167 2.284-3.884l4-2.216c1.233-.684 3.1-.684 4.333 0l4 2.216c1.3.717 2.284 2.4 2.284 3.884V31.3c0 1.5-.984 3.167-2.3 3.9l-4 2.217c-.6.333-1.367.5-2.15.5Zm-.95-14.8-4 2.216c-.5.284-1 1.134-1 1.7v4.234c0 .583.5 1.433 1 1.7l4 2.216c.483.267 1.416.267 1.9 0l4-2.216c.5-.284 1-1.134 1-1.7v-4.234c0-.583-.5-1.433-1-1.7l-4-2.233c-.467-.25-1.417-.25-1.9.017Z" fill="#333367"/></svg>