<svg id="Layer_2" data-name="Layer 2" xmlns="http://www.w3.org/2000/svg" viewBox="0 0 40.05 40.07"><defs><style>.cls-1{fill:#1a499c;stroke-width:0}</style></defs><g id="Layer_1-2" data-name="Layer 1"><path class="cls-1" d="M38.66 40.07H1.4c-.76 0-1.4-.63-1.4-1.4s.63-1.4 1.4-1.4h37.26c.76 0 1.4.63 1.4 1.4s-.63 1.4-1.4 1.4ZM24.68 9.3c-1.75 0-3.5-.34-5.18-1.01-.52-.2-.88-.73-.88-1.3V1.4c0-.47.22-.89.61-1.16.39-.26.88-.32 1.3-.15 2.66 1.06 5.61 1.06 8.27 0 .43-.17.91-.11 1.3.15s.61.69.61 1.16v5.59c0 .58-.35 1.08-.88 1.3a13.96 13.96 0 0 1-5.18 1.01Zm-3.26-3.28c2.12.65 4.4.65 6.52 0v-2.7c-2.14.52-4.38.52-6.52 0v2.7Z"/><path class="cls-1" d="M20.03 13.99c-.76 0-1.4-.63-1.4-1.4V7c0-.76.63-1.4 1.4-1.4s1.4.63 1.4 1.4v5.59c0 .76-.63 1.4-1.4 1.4Z"/><path class="cls-1" d="M34.93 40.07H5.12c-.76 0-1.4-.63-1.4-1.4V18.18c0-4.51 2.48-6.99 6.99-6.99h18.63c4.51 0 6.99 2.48 6.99 6.99v20.49c0 .76-.63 1.4-1.4 1.4ZM6.52 37.28h27.01v-19.1c0-2.94-1.25-4.19-4.19-4.19H10.71c-2.94 0-4.19 1.25-4.19 4.19v19.1Z"/><path class="cls-1" d="M33.85 21.44H6.2c-.76 0-1.4-.63-1.4-1.4s.63-1.4 1.4-1.4h27.65c.76 0 1.4.63 1.4 1.4s-.63 1.4-1.4 1.4Z"/><path class="cls-1" d="M13.95 20.05h-2.79v18.63h2.79V20.05ZM21.41 20.05h-2.79v18.63h2.79V20.05ZM28.86 20.05h-2.79v18.63h2.79V20.05Z"/></g></svg>