<svg data-name="Layer 2" xmlns="http://www.w3.org/2000/svg" viewBox="0 0 39.94 34.4"><g data-name="Layer 1"><path d="m39.64 20.82-1.19-1.7a.972.972 0 0 0-.34-.3.86.86 0 0 0-.44-.1c-.15 0-.31.04-.44.12-.14.07-.25.18-.33.31-.22-.04-.44-.09-.55-.11l-.17-.04c-.48-.09-.94-.14-1.42-.18-.32-.03-.63-.07-.95-.11-.1-.09-.26-.32-.36-.45-.07-.09-.14-.19-.21-.28l-.21-.27c-.17-.22-.35-.44-.51-.66a7.22 7.22 0 0 1-.23-.36c.05-.19.04-.4-.03-.58a.908.908 0 0 0-.37-.45l-.24-.15a1.56 1.56 0 0 0-.82-.23c-.06-.01-.12-.02-.19-.03 0 0-.01-.02-.02-.03l-.06-.09c-.05-.09-.09-.19-.12-.29-.06-.17-.13-.34-.2-.5-.14-.29-.34-.5-.52-.68l-.03-.08c.12-.08.22-.19.3-.32.07-.13.11-.27.12-.42s-.02-.29-.08-.43c-.06-.13-.15-.25-.26-.35l-.54-.59a2.11 2.11 0 0 0-.36-.31c0-.14-.01-.27-.06-.39s-.12-.24-.21-.33l-.33-.34c-.21-.21-.48-.36-.77-.41-.14-.13-.3-.24-.47-.31-.15-.37-.41-.65-.58-.84-.04-.04-.07-.08-.1-.12-.13-.32-.45-1.1-1.55-1.2h-.31c-.19-.4-.57-.89-1.33-.96-.27-.03-.63-.06-.95-.13a1.95 1.95 0 0 0-.85.02c-.31-.03-.63-.06-1-.1-.31-.03-.61-.07-.92-.1h-.16c-.41-.05-.41-.05-.51-.14-.41-.36-.84-.71-1.27-1.03-.34-.26-.68-.53-1.03-.79-1.61-1.26-3.28-2.56-5.27-3.44C10.64.3 10.08.21 9.58.13 9.41.1 9.23.08 9.06.04 8.94.02 8.82 0 8.7 0c-.49 0-.88.19-1.21.38-.05.03-.09.06-.15.08-.17.07-.96.32-2.73.86l-.38.11c-.15.05-.29.13-.4.24s-.19.25-.24.4c-.04.15-.05.31-.01.47.04.15.11.3.21.42l.26.3c.1.11.19.22.28.32.19.23.41.48.64.72-.02.05-.04.09-.05.14H4.9c-.94.15-1.36.9-1.59 1.31l-.07.12c-.08-.02-.17-.04-.25-.07-.21-.06-.42-.11-.63-.14h-.08a1.58 1.58 0 0 0-.43-.05c-.49 0-1.33.2-1.49 1.53-.02.22-.03.44-.03.67v.38l-.04.09c-.16.33-.63 1.35.18 2.09l.4.37c.26.23.62.31.94.2.25.43.52.81.78 1.19.32.46.62.89.84 1.35.15.3.36.52.5.66.1.5.46.86.67 1.07.02.02.05.05.07.08l.08.1c-.08.16-.11.33-.1.51.02.17.08.34.19.48l.21.28c.05.07.1.13.16.2.11.13.13.17.15.21.09.27.32.98 1.09 1.19l.15.04c.24.06.27.07.3.1l.15.14c.3.28.55.52.65.77l.04.09c.04.1.11.27.13.33.03.15.08.29.15.43.07.26.21.47.31.61l.03.04c.03.05.07.11.08.1 0 .05-.01.2-.03.31-.03.22-.07.5-.05.82.03.36.15.65.23.84.01.03.03.06.04.1v.08c0 .27 0 .67.3 1.16l.15.25c.29.5.65 1.13 1.23 1.56.28.21.56.29.74.33.17.18.34.33.48.45l.18.17s.06.05.08.07c.02.06.05.12.09.18.08.15.18.26.27.35.02.06.04.12.06.17.13.37.23.59.31.73.02.16.07.39.23.64.1.16.2.28.31.4.02.03.04.05.05.04.14.44.43.83.7 1.17-.07.06-.14.13-.19.2-.05.07-.08.14-.11.22-.12.15-.19.33-.2.52-.01.19.03.38.13.54l.36.6c.28.47.7.66.93.77h.02c.11.1.24.16.37.2.14.03.28.04.42 0h.06c.13.36.48.62.89.62h.25c.46 0 1.07-.18 1.47-.96.16-.12.28-.27.37-.45s.14-.37.14-.56c.03 0 .07.02.08 0 .4-.01.72-.13.97-.22.09-.03.22-.08.26-.08.39 0 .58.02.92.14.45.15.9.19 1.3.22.1 0 .21.02.29.03.18.02.39 0 .58-.02.22.27.62.6 1.23.6.89 0 1.72-.7 1.89-1.59.08-.4.54-1.06.81-1.22l.26-.15c.3-.18.55-.33.81-.42.26-.09.62-.13.96-.17.13-.01.27-.03.4-.05 1.17-.15 2.33-.31 3.5-.47l.39-.05c.13-.02.26-.07.38-.14.11-.07.21-.17.29-.29l1.87-.72c.27-.11.55-.2.84-.3.52-.18 1.05-.37 1.58-.61.83-.38.95-1.33 1.04-2.05 0-.07.01-.13.02-.17l.32-1.54s.03-.11.06-.2c.16-.52.42-1.4-.09-2.13Zm-1.73 1.61c-.04.11-.07.22-.09.34l-.32 1.54c-.02.12-.04.23-.05.35-.01.12-.05.43-.1.6-.4.18-.84.33-1.26.48-.3.1-.6.21-.9.33l-2.02.79-.09.03c-.07.02-.2.06-.31.1-.12.05-.23.12-.33.21-1.07.15-2.15.29-3.23.43-.12.02-.24.03-.36.04-.43.05-.92.1-1.39.26-.42.15-.79.36-1.14.57l-.25.14c-.74.43-1.5 1.52-1.7 2.4-.11-.15-.24-.28-.4-.37-.17-.09-.36-.13-.55-.13-.15 0-.34.02-.5.04-.08.01-.16.03-.21.03l-.35-.03c-.3-.02-.61-.05-.83-.12-.58-.2-.99-.24-1.53-.24-.34 0-.64.1-.88.19-.14.05-.26.09-.36.1-.04-.02-.08-.05-.11-.07-.22-.15-.59-.35-1-.25-.64.16-.84.72-.92 1.15-.04-.12-.1-.22-.18-.32a.86.86 0 0 0-.2-.18c-.18-.42-.48-.7-.73-.94-.13-.12-.26-.24-.36-.37-.09-.12-.35-.43-.39-.58-.11-.36-.29-.56-.42-.71-.03-.04-.07-.07-.1-.12a.986.986 0 0 0-.19-.55s-.07-.11-.21-.52c-.02-.05-.03-.1-.05-.15-.03-.12-.08-.23-.13-.34a.96.96 0 0 0-.25-.32c-.05-.27-.23-.56-.6-.73l-.17-.15c-.15-.13-.3-.27-.44-.42-.29-.34-.62-.41-.82-.45-.04 0-.09-.02-.1-.02-.27-.2-.5-.61-.72-.98l-.16-.27q-.03-.06-.03-.2v-.21c-.01-.29-.12-.53-.19-.7a.702.702 0 0 1-.08-.23c0-.12.01-.26.04-.42.04-.26.08-.59.01-.94-.06-.32-.22-.57-.35-.77l-.05-.08-.03-.05a.871.871 0 0 0-.16-.37c-.05-.22-.14-.44-.22-.61l-.03-.08c-.26-.62-.71-1.04-1.11-1.42l-.14-.13c-.36-.34-.72-.45-1.04-.54v-.04c-.08-.2-.18-.38-.3-.55.19-.7-.43-1.46-.72-1.81-.06-.08-.13-.15-.2-.22-.05-.05-.1-.1-.14-.15-.04-.43-.33-.72-.51-.9-.05-.05-.1-.1-.15-.16-.28-.59-.64-1.11-.99-1.61-.27-.39-.55-.78-.76-1.18l-.07-.14c-.18-.35-.45-.89-1.04-1.05-.03 0-.07-.02-.11-.02.07-.31.07-.59.07-.85v-.25c.09.02.19.05.3.08.34.09.74.2 1.12.14.75-.1 1.09-.7 1.31-1.09.07-.12.19-.33.24-.37.04 0 .1 0 .16-.01.42-.02.79-.06 1.08-.33.1-.1.18-.22.23-.35.05-.13.07-.28.06-.42.14-.06.26-.16.36-.28.09-.12.16-.26.19-.41s.02-.31-.03-.45A1.09 1.09 0 0 0 7 3.66l-.63-.63c-.07-.07-.15-.14-.22-.22.83-.25 1.61-.5 1.86-.59.14-.06.28-.13.42-.21.16-.09.23-.12.23-.12.2.04.41.07.62.11.41.06.8.12 1.13.27 1.78.79 3.35 2.02 4.88 3.21.35.27.69.54 1.04.81.38.29.78.6 1.16.94.57.51 1.07.56 1.6.6h.15c.3.04.6.07.96.11.35.04.7.07 1.04.11.21.02.38-.02.49-.04.04-.01.06-.01.06-.01.36.08.72.12 1.02.15l.03.1c.03.09.06.19.1.28.11.24.39.65 1.08.65.13 0 .28-.02.43-.04l.12-.02v.02l.04.07c.09.24.26.42.43.61.05.06.13.14.18.2-.03.25.04.49.2.69.15.19.38.32.62.35.08.24.25.43.48.54.08.17.2.31.36.41.18.2.43.37.7.56l.11.07c0 .14.02.27.08.4-.09.16-.14.35-.13.53.01.19.08.36.19.51.05.07.14.27.2.42.05.16.14.29.27.4l.05.05c.07.07.17.15.2.2.05.11.09.21.12.31.07.19.14.4.28.62l.05.08c.19.32.47.8 1 .93.06.02.12.02.19.03 0 .02.02.05.02.07l.04.14c.04.16.12.3.23.42.11.12.25.2.41.25l.08.12c.18.26.38.51.57.75l.21.26c.05.07.1.14.17.22.32.45.76 1.06 1.46 1.19.4.07.8.11 1.21.15.4.04.82.08 1.2.15l.14.03c.53.12 1.15.24 1.59.21l.53.76c0 .13-.09.41-.14.58Z" style="fill:#333367;stroke-width:0"/><path d="M23.47 17.3c0 2.8-2.29 5.07-5.1 5.07s-4.54-2.82-4.54-2.82m0 0h2.31m-2.31 0v2.53m-.56-4.78c0-2.8 2.27-5.07 5.1-5.07 3.4 0 5.1 2.82 5.1 2.82m0 .01v-2.53m0 2.53H21.2" style="fill:none;stroke:#333367;stroke-linecap:round;stroke-linejoin:round;stroke-width:1.5px"/></g></svg>