<svg width="40" height="40" viewBox="0 0 40 40" fill="none" xmlns="http://www.w3.org/2000/svg">
<path d="M3.3335 16.25C2.65016 16.25 2.0835 15.6834 2.0835 15V10.8334C2.0835 6.01671 6.01683 2.08337 10.8335 2.08337H15.0002C15.6835 2.08337 16.2502 2.65004 16.2502 3.33337C16.2502 4.01671 15.6835 4.58337 15.0002 4.58337H10.8335C7.3835 4.58337 4.5835 7.38337 4.5835 10.8334V15C4.5835 15.6834 4.01683 16.25 3.3335 16.25Z" fill="#17469E"/>
<path d="M36.6667 16.25C35.9833 16.25 35.4167 15.6834 35.4167 15V10.8334C35.4167 7.38337 32.6167 4.58337 29.1667 4.58337H25C24.3167 4.58337 23.75 4.01671 23.75 3.33337C23.75 2.65004 24.3167 2.08337 25 2.08337H29.1667C33.9833 2.08337 37.9167 6.01671 37.9167 10.8334V15C37.9167 15.6834 37.35 16.25 36.6667 16.25Z" fill="#17469E"/>
<path d="M29.1665 37.9166H26.6665C25.9832 37.9166 25.4165 37.35 25.4165 36.6666C25.4165 35.9833 25.9832 35.4166 26.6665 35.4166H29.1665C32.6165 35.4166 35.4165 32.6166 35.4165 29.1666V26.6666C35.4165 25.9833 35.9832 25.4166 36.6665 25.4166C37.3498 25.4166 37.9165 25.9833 37.9165 26.6666V29.1666C37.9165 33.9833 33.9832 37.9166 29.1665 37.9166Z" fill="#17469E"/>
<path d="M15.0002 37.9167H10.8335C6.01683 37.9167 2.0835 33.9833 2.0835 29.1667V25C2.0835 24.3167 2.65016 23.75 3.3335 23.75C4.01683 23.75 4.5835 24.3167 4.5835 25V29.1667C4.5835 32.6167 7.3835 35.4167 10.8335 35.4167H15.0002C15.6835 35.4167 16.2502 35.9833 16.2502 36.6667C16.2502 37.35 15.6835 37.9167 15.0002 37.9167Z" fill="#17469E"/>
<path d="M30 24.5833C29.3167 24.5833 28.75 24.0166 28.75 23.3333V21.25H11.25V23.3333C11.25 24.0166 10.6833 24.5833 10 24.5833C9.31667 24.5833 8.75 24.0166 8.75 23.3333V16.6666C8.75 15.9833 9.31667 15.4166 10 15.4166C10.6833 15.4166 11.25 15.9833 11.25 16.6666V18.75H28.75V16.6666C28.75 15.9833 29.3167 15.4166 30 15.4166C30.6833 15.4166 31.25 15.9833 31.25 16.6666V23.3333C31.25 24.0166 30.6833 24.5833 30 24.5833Z" fill="#17469E"/>
<path d="M23.3332 31.25H16.6665C15.9832 31.25 15.4165 30.6833 15.4165 30C15.4165 29.3167 15.9832 28.75 16.6665 28.75H18.7498V11.25H16.6665C15.9832 11.25 15.4165 10.6833 15.4165 10C15.4165 9.31667 15.9832 8.75 16.6665 8.75H23.3332C24.0165 8.75 24.5832 9.31667 24.5832 10C24.5832 10.6833 24.0165 11.25 23.3332 11.25H21.2498V28.75H23.3332C24.0165 28.75 24.5832 29.3167 24.5832 30C24.5832 30.6833 24.0165 31.25 23.3332 31.25Z" fill="#17469E"/>
</svg>
