<svg width="41" height="40" viewBox="0 0 41 40" fill="none" xmlns="http://www.w3.org/2000/svg">
<path d="M20.5002 27.9167C19.8335 27.9167 19.1668 27.8667 18.5335 27.75C15.0002 27.2334 11.7835 25.2 9.75016 22.1834C8.3335 20.05 7.5835 17.5667 7.5835 15C7.5835 7.88337 13.3835 2.08337 20.5002 2.08337C27.6168 2.08337 33.4168 7.88337 33.4168 15C33.4168 17.5667 32.6668 20.05 31.2502 22.1834C29.2002 25.2167 25.9835 27.2334 22.4168 27.7667C21.8335 27.8667 21.1668 27.9167 20.5002 27.9167ZM20.5002 4.58337C14.7502 4.58337 10.0835 9.25004 10.0835 15C10.0835 17.0834 10.6835 19.0834 11.8168 20.7834C13.4668 23.2167 16.0502 24.85 18.9168 25.2667C19.9835 25.45 21.0335 25.45 22.0168 25.2667C24.9335 24.85 27.5168 23.2 29.1668 20.7667C30.3002 19.0667 30.9002 17.0667 30.9002 14.9834C30.9168 9.25002 26.2502 4.58337 20.5002 4.58337Z" fill="#333367"/>
<path d="M11.2832 37.6499C11.0499 37.6499 10.8332 37.6166 10.5999 37.5666C9.51653 37.3166 8.68319 36.4832 8.43319 35.3999L7.84986 32.9499C7.81653 32.7999 7.69986 32.6832 7.53319 32.6332L4.78319 31.9832C3.74986 31.7332 2.93319 30.9666 2.64986 29.9499C2.36653 28.9332 2.64986 27.8332 3.39986 27.0832L9.89986 20.5833C10.1665 20.3166 10.5332 20.1832 10.8999 20.2166C11.2665 20.2499 11.5999 20.4499 11.8165 20.7666C13.4665 23.1999 16.0499 24.8499 18.9332 25.2666C19.9999 25.4499 21.0499 25.4499 22.0332 25.2666C24.9499 24.8499 27.5332 23.1999 29.1832 20.7666C29.3832 20.4499 29.7332 20.2499 30.0999 20.2166C30.4665 20.1832 30.8332 20.3166 31.0999 20.5833L37.5999 27.0832C38.3499 27.8332 38.6332 28.9332 38.3499 29.9499C38.0665 30.9666 37.2332 31.7499 36.2165 31.9832L33.4665 32.6332C33.3165 32.6666 33.1999 32.7832 33.1499 32.9499L32.5665 35.3999C32.3165 36.4832 31.4832 37.3166 30.3999 37.5666C29.3165 37.8333 28.1999 37.4499 27.4999 36.5999L20.4999 28.5499L13.4999 36.6166C12.9332 37.2832 12.1332 37.6499 11.2832 37.6499ZM10.6499 23.3832L5.16653 28.8666C5.01653 29.0166 5.03319 29.1833 5.06653 29.2833C5.08319 29.3666 5.16653 29.5332 5.36653 29.5666L8.11653 30.2166C9.19986 30.4666 10.0332 31.2999 10.2832 32.3832L10.8665 34.8332C10.9165 35.0499 11.0832 35.1166 11.1832 35.1499C11.2832 35.1666 11.4499 35.1833 11.5999 35.0166L17.9832 27.6666C15.1499 27.1166 12.5499 25.5999 10.6499 23.3832ZM23.0165 27.6499L29.3999 34.9832C29.5499 35.1666 29.7332 35.1666 29.8332 35.1332C29.9332 35.1166 30.0832 35.0333 30.1499 34.8166L30.7332 32.3666C30.9832 31.2833 31.8165 30.4499 32.8999 30.1999L35.6499 29.5499C35.8499 29.4999 35.9332 29.3499 35.9499 29.2666C35.9832 29.1832 35.9999 28.9999 35.8499 28.8499L30.3665 23.3666C28.4499 25.5832 25.8665 27.0999 23.0165 27.6499Z" fill="#333367"/>
<path d="M23.6501 21.4834C23.2167 21.4834 22.7001 21.3667 22.0834 21.0001L20.5001 20.05L18.9167 20.9834C17.4667 21.85 16.5167 21.35 16.1667 21.1C15.8167 20.85 15.0667 20.1001 15.4501 18.4501L15.8501 16.7334L14.5167 15.5C13.7834 14.7667 13.5167 13.8834 13.7667 13.0834C14.0167 12.2834 14.7501 11.7167 15.7834 11.55L17.5667 11.25L18.4167 9.38338C18.9001 8.43338 19.6501 7.90002 20.5001 7.90002C21.3501 7.90002 22.1167 8.45007 22.5834 9.40007L23.5667 11.3667L25.2167 11.5667C26.2334 11.7334 26.9667 12.3 27.2334 13.1C27.4834 13.9 27.2167 14.7834 26.4834 15.5167L25.1001 16.9001L25.5334 18.4501C25.9167 20.1001 25.1667 20.85 24.8167 21.1C24.6334 21.25 24.2334 21.4834 23.6501 21.4834ZM16.5167 13.9834L17.6667 15.1334C18.2001 15.6667 18.4667 16.5667 18.3001 17.3L17.9834 18.6334L19.3167 17.85C20.0334 17.4334 21.0001 17.4334 21.7001 17.85L23.0334 18.6334L22.7334 17.3C22.5667 16.55 22.8167 15.6667 23.3501 15.1334L24.5001 13.9834L23.0501 13.7334C22.3501 13.6167 21.6501 13.1001 21.3334 12.4667L20.5001 10.8334L19.6667 12.5C19.3667 13.1167 18.6667 13.6501 17.9667 13.7667L16.5167 13.9834Z" fill="#333367"/>
</svg>
