<svg data-name="Layer 2" xmlns="http://www.w3.org/2000/svg" viewBox="0 0 20 20"><path d="M10 0C8.02 0 6.09.59 4.44 1.69A9.975 9.975 0 0 0 .76 6.18a9.99 9.99 0 0 0-.57 5.77 10.03 10.03 0 0 0 2.74 5.12c1.4 1.4 3.18 2.35 5.12 2.74 1.94.39 3.95.19 5.78-.57a10.04 10.04 0 0 0 4.49-3.68A9.993 9.993 0 0 0 20.01 10c0-1.31-.26-2.61-.76-3.83a9.87 9.87 0 0 0-2.17-3.24A9.975 9.975 0 0 0 10.01 0Zm5.68 9.54-2.13 2.18.5 3.1c.03.19.01.38-.06.56-.07.18-.19.33-.35.44-.15.11-.34.17-.52.18-.19 0-.37-.04-.54-.13L10 14.42l-2.6 1.43a.996.996 0 0 1-1.47-1.05l.51-3.1L4.3 9.54a.99.99 0 0 1-.23-1.02c.06-.18.17-.33.31-.45a.99.99 0 0 1 .5-.22l2.91-.45L9.1 4.62c.07-.18.2-.34.36-.45.16-.11.35-.17.55-.17.19 0 .38.05.54.15.16.1.29.25.37.42l1.3 2.83 2.91.45c.18.03.35.1.49.22s.25.27.31.45.07.36.02.54c-.04.18-.13.34-.26.48Z" fill="#333367" data-name="Layer 1"/></svg>