<svg width="41" height="40" viewBox="0 0 41 40" fill="none" xmlns="http://www.w3.org/2000/svg">
<path d="M22.1666 24.5833H3.83325C3.14992 24.5833 2.58325 24.0166 2.58325 23.3333V12.7C2.58325 12.1666 2.91657 11.6999 3.3999 11.5166C3.8999 11.3332 4.44993 11.4833 4.78326 11.8833C5.79993 13.1 7.38326 13.7833 8.94993 13.7333C10.2833 13.6999 11.5166 13.2 12.4499 12.3167C12.8832 11.95 13.2332 11.5166 13.4999 11.0333C14.0166 10.15 14.2666 9.18326 14.2499 8.19993C14.2166 6.6666 13.55 5.26661 12.4166 4.24994C12.0166 3.89994 11.8833 3.34991 12.0666 2.86658C12.2499 2.38324 12.7166 2.04993 13.2333 2.04993H25.4999C26.1833 2.04993 26.7499 2.61659 26.7499 3.29993V19.9666C26.7499 22.5333 24.6999 24.5833 22.1666 24.5833ZM5.08325 22.0833H22.1666C23.3166 22.0833 24.2499 21.15 24.2499 20V4.58329H15.8166C16.3999 5.66663 16.7166 6.88332 16.7499 8.14998C16.7833 9.59998 16.4166 11.0333 15.6832 12.2833C15.2832 13 14.7332 13.6833 14.1332 14.1833C12.7999 15.45 10.9666 16.2 9.01656 16.25C7.61656 16.3 6.2666 15.95 5.09993 15.3166V22.0833H5.08325Z" fill="#17469E"/>
<path d="M32.1666 34.5834H30.4999C29.8166 34.5834 29.2499 34.0167 29.2499 33.3334C29.2499 32.1834 28.3166 31.25 27.1666 31.25C26.0166 31.25 25.0833 32.1834 25.0833 33.3334C25.0833 34.0167 24.5166 34.5834 23.8333 34.5834H17.1666C16.4833 34.5834 15.9166 34.0167 15.9166 33.3334C15.9166 32.1834 14.9833 31.25 13.8333 31.25C12.6833 31.25 11.7499 32.1834 11.7499 33.3334C11.7499 34.0167 11.1833 34.5834 10.4999 34.5834H8.83325C5.38325 34.5834 2.58325 31.7834 2.58325 28.3334V23.3334C2.58325 22.65 3.14992 22.0834 3.83325 22.0834H22.1666C23.3166 22.0834 24.2499 21.15 24.2499 20V8.33337C24.2499 7.65004 24.8166 7.08337 25.4999 7.08337H28.5666C30.2166 7.08337 31.7332 7.96673 32.5499 9.40006L35.3999 14.3834C35.6166 14.7667 35.6166 15.25 35.3999 15.6334C35.1833 16.0167 34.7666 16.25 34.3165 16.25H32.1666C31.9333 16.25 31.7499 16.4334 31.7499 16.6667V21.6667C31.7499 21.9 31.9333 22.0834 32.1666 22.0834H37.1666C37.8499 22.0834 38.4166 22.65 38.4166 23.3334V28.3334C38.4166 31.7834 35.6166 34.5834 32.1666 34.5834ZM31.5833 32.0834H32.1666C34.2333 32.0834 35.9166 30.4 35.9166 28.3334V24.5834H32.1666C30.5666 24.5834 29.2499 23.2667 29.2499 21.6667V16.6667C29.2499 15.0667 30.5499 13.75 32.1666 13.75L30.3832 10.6334C30.0166 9.98338 29.3166 9.58337 28.5666 9.58337H26.7499V20C26.7499 22.5334 24.6999 24.5834 22.1666 24.5834H5.08325V28.3334C5.08325 30.4 6.76659 32.0834 8.83325 32.0834H9.41654C9.96655 30.1667 11.7333 28.75 13.8333 28.75C15.9333 28.75 17.7 30.1667 18.25 32.0834H22.7666C23.3166 30.1667 25.0833 28.75 27.1833 28.75C29.2833 28.75 31.0333 30.1667 31.5833 32.0834Z" fill="#17469E"/>
<path d="M13.8333 37.9167C11.3 37.9167 9.25 35.8667 9.25 33.3333C9.25 30.8 11.3 28.75 13.8333 28.75C16.3667 28.75 18.4167 30.8 18.4167 33.3333C18.4167 35.8667 16.3667 37.9167 13.8333 37.9167ZM13.8333 31.25C12.6833 31.25 11.75 32.1833 11.75 33.3333C11.75 34.4833 12.6833 35.4167 13.8333 35.4167C14.9833 35.4167 15.9167 34.4833 15.9167 33.3333C15.9167 32.1833 14.9833 31.25 13.8333 31.25Z" fill="#17469E"/>
<path d="M27.1666 37.9167C24.6333 37.9167 22.5833 35.8667 22.5833 33.3333C22.5833 30.8 24.6333 28.75 27.1666 28.75C29.6999 28.75 31.7499 30.8 31.7499 33.3333C31.7499 35.8667 29.6999 37.9167 27.1666 37.9167ZM27.1666 31.25C26.0166 31.25 25.0833 32.1833 25.0833 33.3333C25.0833 34.4833 26.0166 35.4167 27.1666 35.4167C28.3166 35.4167 29.2499 34.4833 29.2499 33.3333C29.2499 32.1833 28.3166 31.25 27.1666 31.25Z" fill="#17469E"/>
<path d="M37.1667 24.5833H32.1667C30.5667 24.5833 29.25 23.2667 29.25 21.6667V16.6667C29.25 15.0667 30.5667 13.75 32.1667 13.75H34.3166C34.7666 13.75 35.1833 13.9833 35.4 14.3833L38.25 19.3833C38.35 19.5667 38.4167 19.7833 38.4167 20V23.3333C38.4167 24.0167 37.85 24.5833 37.1667 24.5833ZM32.1667 16.25C31.9333 16.25 31.75 16.4333 31.75 16.6667V21.6667C31.75 21.9 31.9333 22.0833 32.1667 22.0833H35.9167V20.3334L33.5833 16.25H32.1667Z" fill="#17469E"/>
<path d="M8.81676 16.25C6.51676 16.25 4.3501 15.2499 2.88343 13.4999C2.6501 13.2499 2.40012 12.8999 2.18346 12.5666C1.40012 11.3833 0.966791 9.98327 0.933458 8.5166C0.866791 6.08327 1.90014 3.79992 3.76681 2.24992C5.18348 1.08325 6.8834 0.449959 8.6834 0.416626C10.6501 0.433293 12.6168 1.0833 14.0835 2.39996C15.7501 3.86663 16.7168 5.91665 16.7668 8.14998C16.8001 9.59998 16.4334 11.0333 15.7001 12.2833C15.3001 13 14.7501 13.6833 14.1501 14.1833C12.8168 15.45 10.9834 16.2 9.03343 16.25C8.9501 16.25 8.88342 16.25 8.81676 16.25ZM8.81676 2.91663C8.78342 2.91663 8.7501 2.91663 8.71676 2.91663C7.5001 2.93329 6.3334 3.38331 5.35006 4.18331C4.0834 5.23331 3.38344 6.79997 3.41677 8.44997C3.45011 9.44997 3.73346 10.4 4.26679 11.1833C4.41679 11.4167 4.56675 11.6333 4.75009 11.8333C5.81675 13.0999 7.40012 13.7666 8.95012 13.7333C10.2835 13.6999 11.5167 13.2 12.4501 12.3167C12.8834 11.95 13.2334 11.5166 13.5001 11.0333C14.0168 10.15 14.2668 9.18326 14.2501 8.19993C14.2168 6.6666 13.5501 5.26661 12.4168 4.24994C11.4168 3.39994 10.1501 2.91663 8.81676 2.91663Z" fill="#17469E"/>
<path d="M7.91638 11.2499C7.59971 11.2499 7.29968 11.1332 7.04968 10.8999L5.36633 9.29995C4.86633 8.81661 4.84973 8.03328 5.33307 7.53328C5.8164 7.03328 6.59973 7.01658 7.09973 7.49992L7.91638 8.2832L10.5331 5.74994C11.0331 5.2666 11.8164 5.2832 12.2997 5.7832C12.7831 6.2832 12.7664 7.06663 12.2664 7.54997L8.78298 10.9166C8.53298 11.1332 8.21638 11.2499 7.91638 11.2499Z" fill="#17469E"/>
</svg>
