<svg width="41" height="40" viewBox="0 0 41 40" fill="none" xmlns="http://www.w3.org/2000/svg">
<path d="M18.4833 25.2834C18.1499 25.2834 17.8333 25.15 17.5999 24.9167L13.5666 20.8834C13.0833 20.4 13.0833 19.6 13.5666 19.1167C14.0499 18.6334 14.8499 18.6334 15.3333 19.1167L18.4833 22.2667L25.6499 15.1C26.1333 14.6167 26.9333 14.6167 27.4166 15.1C27.8999 15.5834 27.8999 16.3834 27.4166 16.8667L19.3666 24.9167C19.1333 25.15 18.8166 25.2834 18.4833 25.2834Z" fill="#333367"/>
<path d="M20.5001 37.9167C19.4501 37.9167 18.4001 37.5667 17.5835 36.8667L14.9501 34.6C14.6835 34.3667 14.0168 34.1334 13.6668 34.1334H10.8001C8.33346 34.1334 6.33346 32.1334 6.33346 29.6667V26.8167C6.33346 26.4667 6.10013 25.8167 5.8668 25.55L3.6168 22.9C2.25013 21.2834 2.25013 18.7334 3.6168 17.1167L5.8668 14.4667C6.10013 14.2 6.33346 13.55 6.33346 13.2V10.3334C6.33346 7.86671 8.33346 5.86671 10.8001 5.86671H13.6835C14.0335 5.86671 14.7001 5.61671 14.9668 5.40004L17.6001 3.13337C19.2335 1.73337 21.7835 1.73337 23.4168 3.13337L26.0501 5.40004C26.3168 5.63337 26.9835 5.86671 27.3335 5.86671H30.1668C32.6335 5.86671 34.6335 7.86671 34.6335 10.3334V13.1667C34.6335 13.5167 34.8835 14.1834 35.1168 14.45L37.3835 17.0834C38.7835 18.7167 38.7835 21.2667 37.3835 22.9L35.1168 25.5334C34.8835 25.8 34.6335 26.4667 34.6335 26.8167V29.65C34.6335 32.1167 32.6335 34.1167 30.1668 34.1167H27.3335C26.9835 34.1167 26.3168 34.3667 26.0501 34.5834L23.4168 36.85C22.6001 37.5667 21.5501 37.9167 20.5001 37.9167ZM10.8001 8.36671C9.7168 8.36671 8.83346 9.25004 8.83346 10.3334V13.1834C8.83346 14.1334 8.38346 15.35 7.7668 16.0667L5.5168 18.7167C4.93346 19.4 4.93346 20.5834 5.5168 21.2667L7.7668 23.9167C8.38346 24.65 8.83346 25.85 8.83346 26.8V29.65C8.83346 30.7334 9.7168 31.6167 10.8001 31.6167H13.6835C14.6501 31.6167 15.8668 32.0667 16.6001 32.7L19.2335 34.9667C19.9168 35.55 21.1168 35.55 21.8001 34.9667L24.4335 32.7C25.1668 32.0834 26.3835 31.6167 27.3501 31.6167H30.1835C31.2668 31.6167 32.1501 30.7334 32.1501 29.65V26.8167C32.1501 25.85 32.6001 24.6334 33.2335 23.9L35.5001 21.2667C36.0835 20.5834 36.0835 19.3834 35.5001 18.7L33.2335 16.0667C32.6001 15.3334 32.1501 14.1167 32.1501 13.15V10.3334C32.1501 9.25004 31.2668 8.36671 30.1835 8.36671H27.3501C26.3835 8.36671 25.1668 7.91671 24.4335 7.28337L21.8001 5.01671C21.1168 4.43337 19.9168 4.43337 19.2335 5.01671L16.6001 7.30004C15.8668 7.91671 14.6335 8.36671 13.6835 8.36671H10.8001Z" fill="#333367"/>
</svg>
